# This file uses centimeters as units for non-parametric coordinates.

mtllib SM_Hologram.mtl
v 0.893118 1.950240 0.000001
v 0.776487 1.950240 -1.271882
v 0.282428 1.950240 -2.163855
v 0.282428 1.950240 2.163858
v 0.776487 1.950240 1.271884
v 0.893118 -1.950240 0.000001
v 0.776487 -1.950240 -1.271882
v 0.282428 -1.950240 -2.163855
v 0.282428 -1.950240 2.163858
v 0.776487 -1.950240 1.271884
vt 0.496266 0.011076
vt 0.800519 0.011076
vt 0.800519 0.996894
vt 0.496266 0.996894
vt 0.988455 0.011076
vt 0.988455 0.996894
vt 0.009651 0.011076
vt 0.196211 0.011076
vt 0.196211 0.996894
vt 0.009651 0.996894
vn 1.000000 0.000000 -0.000000
vn 0.962407 0.000000 -0.271613
vn 0.962407 0.000000 -0.271613
vn 1.000000 0.000000 -0.000000
vn 0.874774 0.000000 -0.484532
vn 0.874774 0.000000 -0.484532
vn 0.874774 0.000000 0.484532
vn 0.962406 0.000000 0.271613
vn 0.962406 0.000000 0.271613
vn 0.874774 0.000000 0.484532
s 1
usemtl initialShadingGroup
f 6/1/1 7/2/2 2/3/3 1/4/4
f 7/2/2 8/5/5 3/6/6 2/3/3
f 9/7/7 10/8/8 5/9/9 4/10/10
f 10/8/8 6/1/1 1/4/4 5/9/9
