# This file uses centimeters as units for non-parametric coordinates.

mtllib SM_HoloCone.mtl
v 1.386067 2.000000 0.442028
v 1.386067 2.000000 -0.442028
v 0.291955 0.500000 -0.092730
v 0.291955 0.500000 0.092730
v 0.847981 2.000000 -1.182639
v 0.007194 2.000000 -1.488674
v 0.002689 0.500000 -0.275786
v 0.179073 0.500000 -0.248099
v -0.863447 2.000000 -1.190424
v -1.383082 2.000000 -0.457723
v -0.288970 0.500000 -0.096023
v -0.179958 0.500000 -0.213218
v -1.383082 2.000000 0.457723
v -0.863447 2.000000 1.172939
v -0.179958 0.500000 0.246064
v -0.288969 0.500000 0.096023
v 0.007195 2.000000 1.455828
v 0.847981 2.000000 1.182639
v 0.179073 0.500000 0.248099
v 0.002689 0.500000 0.305410
vt 0.160238 0.015625
vt 0.160238 0.989283
vt 0.065569 0.989283
vt 0.065569 0.015625
vt 0.367912 0.015625
vt 0.367912 0.989283
vt 0.273243 0.989283
vt 0.273243 0.015625
vt 0.575586 0.015625
vt 0.575586 0.989283
vt 0.480917 0.989283
vt 0.480917 0.015625
vt 0.783260 0.015625
vt 0.783260 0.989283
vt 0.688591 0.989283
vt 0.688591 0.015625
vt 0.990933 0.015625
vt 0.990933 0.989283
vt 0.896264 0.989283
vt 0.896264 0.015625
vt 0.009067 0.989283
vt 0.009067 0.015625
vn 0.463966 -0.613196 -0.639316
vn 0.466611 -0.613120 -0.637462
vn 0.753914 -0.607917 -0.249100
vn 0.753601 -0.607912 -0.250058
vn -0.456228 -0.619388 -0.638916
vn -0.455908 -0.619395 -0.639139
vn -0.010904 -0.624034 -0.781321
vn -0.018742 -0.624091 -0.781127
vn -0.755723 -0.609189 0.240359
vn -0.755414 -0.609194 0.241315
vn -0.752406 -0.612273 -0.242912
vn -0.751298 -0.612323 -0.246196
vn -0.004835 -0.608554 0.793497
vn -0.004067 -0.608558 0.793499
vn -0.463225 -0.608948 0.643899
vn -0.462100 -0.608940 0.644714
vn 0.753601 -0.607912 0.250057
vn 0.753914 -0.607917 0.249100
vn 0.469597 -0.608159 0.640016
vn 0.470722 -0.608151 0.639198
s 1
usemtl blinn1SG
f 8/1/1 5/2/2 2/3/3 3/4/4
f 12/5/5 9/6/6 6/7/7 7/8/8
f 16/9/9 13/10/10 10/11/11 11/12/12
f 20/13/13 17/14/14 14/15/15 15/16/16
f 4/17/17 1/18/18 18/19/19 19/20/20
f 2/3/3 1/21/18 4/22/17 3/4/4
f 6/7/7 5/2/2 8/1/1 7/8/8
f 10/11/11 9/6/6 12/5/5 11/12/12
f 14/15/15 13/10/10 16/9/9 15/16/16
f 18/19/19 17/14/14 20/13/13 19/20/20
