# This file uses centimeters as units for non-parametric coordinates.

mtllib Marv_House.mtl
g default
v 1.673828 487.501312 -6.248813
v 6.250000 487.501312 -1.674594
v 12.498047 487.501312 -0.000766
v 12.498047 493.750671 -1.674594
v 12.498047 498.325500 -6.248813
v 12.498047 500.000000 -12.498813
v 6.250000 498.325500 -12.498813
v 1.673828 493.750671 -12.498813
v 0.000000 487.501312 -12.498813
v 493.750000 487.501312 -1.674594
v 498.326172 487.501312 -6.248813
v 500.000000 487.501312 -12.498813
v 498.326172 493.750671 -12.498813
v 493.750000 498.325500 -12.498813
v 487.501953 500.000000 -12.498813
v 487.501953 498.325500 -6.248813
v 487.501953 493.750671 -1.674594
v 487.501953 487.501312 -0.000766
v 6.250000 487.501312 -498.324985
v 1.673828 487.501312 -493.748813
v 0.000000 487.501312 -487.500766
v 1.673828 493.750671 -487.500766
v 6.250000 498.325500 -487.500766
v 12.498047 500.000000 -487.500766
v 12.498047 498.325500 -493.748813
v 12.498047 493.750671 -498.324985
v 12.498047 487.501312 -499.998813
v 498.326172 487.501312 -493.748813
v 493.750000 487.501312 -498.324985
v 487.501953 487.501312 -499.998813
v 487.501953 493.750671 -498.324985
v 487.501953 498.325500 -493.748813
v 487.501953 500.000000 -487.500766
v 493.750000 498.325500 -487.500766
v 498.326172 493.750671 -487.500766
v 500.000000 487.501312 -487.500766
v 500.000000 0.000000 -12.498813
v 498.326172 0.000000 -6.248813
v 493.750000 0.000000 -1.674594
v 487.501953 0.000000 -0.000766
v 487.501953 0.000000 -499.998813
v 493.750000 0.000000 -498.324985
v 498.326172 0.000000 -493.748813
v 500.000000 0.000000 -487.500766
v 12.498047 0.000000 -0.000766
v 6.250000 0.000000 -1.674594
v 1.673828 0.000000 -6.248813
v 0.000000 0.000000 -12.498813
v 0.000000 0.000000 -487.500766
v 1.673828 0.000000 -493.748813
v 6.250000 0.000000 -498.324985
v 12.498047 0.000000 -499.998813
v 2.615234 492.901794 -7.098422
v 7.097656 492.901794 -2.616000
v 7.097656 497.385590 -7.098422
v 492.902344 492.901794 -2.616000
v 497.384766 492.901794 -7.098422
v 492.902344 497.385590 -7.098422
v 7.097656 492.901794 -497.383579
v 2.615234 492.901794 -492.901157
v 7.097656 497.385590 -492.901157
v 497.384766 492.901794 -492.901157
v 492.902344 492.901794 -497.383579
v 492.902344 497.385590 -492.901157
vt 0.232382 0.682199
vt 0.232382 0.682199
vt 0.240827 0.681777
vt 0.249273 0.681354
vt 0.024138 -0.000000
vt 0.249002 0.689946
vt 0.024612 0.009360
vt 0.025051 0.018786
vt 0.012544 0.015089
vt 0.236283 0.686045
vt -0.000000 0.011265
vt 0.236669 0.677390
vt 0.232382 0.682199
vt 0.913204 0.682199
vt 0.240802 0.681762
vt 0.249221 0.681323
vt 1.000000 0.024138
vt 0.249002 0.689946
vt 0.990634 0.024613
vt 0.981214 0.025051
vt 0.984913 0.012536
vt 0.913194 0.689946
vt 0.988735 -0.000000
vt 0.904274 0.681563
vt 0.918111 0.673402
vt 0.578123 0.344205
vt 0.920951 0.673557
vt 0.574157 0.348056
vt -0.000000 0.975862
vt 0.570321 0.352007
vt 0.009366 0.975387
vt 0.018786 0.974949
vt 0.015089 0.987455
vt 0.917050 0.686045
vt 0.011265 1.000000
vt 0.915187 0.672997
vt 0.901710 0.676123
vt 0.575209 0.344204
vt 0.904562 0.673557
vt 0.579166 0.348026
vt 0.975862 1.000000
vt 0.583011 0.352006
vt 0.975388 0.990634
vt 0.974949 0.981214
vt 0.987456 0.984910
vt 0.913194 0.689946
vt 1.000000 0.988735
vt 0.898526 0.678524
vt 0.232382 0.001377
vt 0.232382 0.001377
vt 0.232382 0.001377
vt 0.232382 0.001377
vt 0.241390 0.001377
vt 0.232382 0.001377
vt 0.232382 0.001377
vt 0.232382 0.001377
vt 0.232382 0.001377
vt 0.232382 0.001377
vt 0.232382 0.001377
vt 0.241513 0.001377
vt 0.911823 0.001377
vt 0.920951 0.001377
vt 0.911937 0.001377
vt 0.902929 0.001377
vt 0.000000 0.000000
vt 0.232382 0.689946
vt 0.232382 0.689946
vt 0.012873 0.000000
vt 0.241246 0.689946
vt 0.014063 0.007679
vt 1.000000 0.000000
vt 0.920951 0.689946
vt 0.232382 0.689946
vt 1.000000 0.012873
vt 0.241246 0.689946
vt 0.992321 0.014061
vt 0.000000 1.000000
vt 0.920951 0.689946
vt -0.000000 0.987127
vt 0.920951 0.681205
vt 0.574222 0.348106
vt 0.007680 0.985937
vt 1.000000 1.000000
vt 0.920951 0.689946
vt 0.987127 1.000000
vt 0.912210 0.681205
vt 0.579110 0.348105
vt 0.985937 0.992320
vn -0.003467 0.003379 0.999988
vn -0.499891 0.002546 0.866085
vn -0.499929 0.000000 0.866066
vn -0.003478 0.000000 0.999994
vn -0.866029 0.002547 0.499987
vn -0.866011 0.000000 0.500025
vn -0.999988 0.003379 0.003467
vn -0.999994 0.000000 0.003478
vn -0.003468 0.999988 0.003468
vn -0.002614 0.866045 0.499959
vn 0.002612 0.866046 0.499958
vn 0.003468 0.999988 0.003468
vn -0.002613 0.499882 0.866090
vn 0.002612 0.499882 0.866089
vn 0.003467 0.003379 0.999988
vn -0.866076 0.499905 0.002611
vn -0.866077 0.499904 -0.002612
vn -0.999988 0.003379 -0.003467
vn -0.499996 0.866024 0.002611
vn -0.499996 0.866024 -0.002611
vn -0.003468 0.999988 -0.003468
vn 0.999988 0.003379 0.003467
vn 0.866029 0.002547 0.499987
vn 0.866011 0.000000 0.500025
vn 0.999994 0.000000 0.003478
vn 0.499891 0.002546 0.866084
vn 0.499929 0.000000 0.866066
vn 0.003478 0.000000 0.999994
vn 0.499959 0.866045 0.002611
vn 0.499960 0.866045 -0.002611
vn 0.003468 0.999988 -0.003468
vn 0.866004 0.500030 0.002611
vn 0.866005 0.500030 -0.002611
vn 0.999988 0.003379 -0.003467
vn -0.866030 0.002547 -0.499986
vn -0.866011 0.000000 -0.500025
vn -0.999994 0.000000 -0.003478
vn -0.500014 0.002546 -0.866014
vn -0.500052 0.000000 -0.865995
vn -0.003467 0.003379 -0.999988
vn -0.003478 0.000000 -0.999994
vn -0.002611 0.499998 -0.866022
vn 0.002611 0.499999 -0.866022
vn 0.003467 0.003379 -0.999988
vn -0.002609 0.866046 -0.499958
vn 0.002609 0.866046 -0.499958
vn 0.500014 0.002545 -0.866013
vn 0.500052 0.000000 -0.865995
vn 0.003478 0.000000 -0.999994
vn 0.866030 0.002546 -0.499986
vn 0.866011 0.000000 -0.500025
vn 0.999994 0.000000 -0.003478
vn -0.809029 0.415675 0.415556
vn -0.415630 0.415510 0.809075
vn -0.415689 0.809039 0.415523
vn 0.415599 0.415564 0.809064
vn 0.808992 0.415740 0.415562
vn 0.415558 0.809116 0.415503
vn -0.415587 0.415583 -0.809060
vn -0.809069 0.415618 -0.415534
vn -0.415503 0.809112 -0.415566
vn 0.809062 0.415630 -0.415537
vn 0.415618 0.415568 -0.809052
vn 0.415490 0.809123 -0.415556
s 1
g SlumHouse1
usemtl lambert4SG
f 3/4/1 2/3/2 46/58/3 45/57/4
f 2/3/2 1/1/5 47/59/6 46/58/3
f 1/2/5 9/12/7 48/60/8 47/59/6
usemtl initialShadingGroup
f 6/8/9 5/7/10 16/21/11 15/20/12
f 5/7/10 4/5/13 17/23/14 16/21/11
usemtl lambert4SG
f 4/6/13 3/4/1 18/24/15 17/22/14
f 9/12/7 8/10/16 22/30/17 21/28/18
usemtl initialShadingGroup
f 8/11/16 7/9/19 23/31/20 22/29/17
f 7/9/19 6/8/9 24/32/21 23/31/20
usemtl lambert4SG
f 12/16/22 11/15/23 38/50/24 37/49/25
f 11/15/23 10/13/26 39/51/27 38/50/24
f 10/14/26 18/24/15 40/52/28 39/51/27
usemtl initialShadingGroup
f 15/20/12 14/19/29 34/45/30 33/44/31
f 14/19/29 13/17/32 35/47/33 34/45/30
usemtl lambert4SG
f 13/18/32 12/16/22 36/48/34 35/46/33
f 21/28/18 20/26/35 50/62/36 49/61/37
f 20/27/35 19/25/38 51/63/39 50/62/36
f 19/25/38 27/36/40 52/64/41 51/63/39
f 27/36/40 26/34/42 31/42/43 30/40/44
usemtl initialShadingGroup
f 26/35/42 25/33/45 32/43/46 31/41/43
f 25/33/45 24/32/21 33/44/31 32/43/46
usemtl lambert4SG
f 30/40/44 29/38/47 42/54/48 41/53/49
f 29/39/47 28/37/50 43/55/51 42/54/48
f 28/37/50 36/48/34 44/56/52 43/55/51
usemtl initialShadingGroup
f 6/8/9 15/20/12 33/44/31 24/32/21
usemtl lambert4SG
f 36/48/34 12/16/22 37/49/25 44/56/52
f 18/24/15 3/4/1 45/57/4 40/52/28
f 27/36/40 30/40/44 41/53/49 52/64/41
f 21/28/18 49/61/37 48/60/8 9/12/7
f 8/10/16 9/12/7 1/2/5 53/66/53
f 53/67/53 1/1/5 2/3/2 54/69/54
f 2/3/2 3/4/1 4/6/13 54/69/54
usemtl initialShadingGroup
f 54/68/54 4/5/13 5/7/10 55/70/55
f 5/7/10 6/8/9 7/9/19 55/70/55
f 55/70/55 7/9/19 8/11/16 53/65/53
f 53/65/53 54/68/54 55/70/55
usemtl lambert4SG
f 17/22/14 18/24/15 10/14/26 56/72/56
f 56/73/56 10/13/26 11/15/23 57/75/57
f 11/15/23 12/16/22 13/18/32 57/75/57
usemtl initialShadingGroup
f 57/74/57 13/17/32 14/19/29 58/76/58
f 14/19/29 15/20/12 16/21/11 58/76/58
f 58/76/58 16/21/11 17/23/14 56/71/56
f 56/71/56 57/74/57 58/76/58
usemtl lambert4SG
f 26/34/42 27/36/40 19/25/38 59/78/59
f 59/78/59 19/25/38 20/27/35 60/80/60
f 20/26/35 21/28/18 22/30/17 60/81/60
usemtl initialShadingGroup
f 60/79/60 22/29/17 23/31/20 61/82/61
f 23/31/20 24/32/21 25/33/45 61/82/61
f 61/82/61 25/33/45 26/35/42 59/77/59
f 59/77/59 60/79/60 61/82/61
usemtl lambert4SG
f 35/46/33 36/48/34 28/37/50 62/84/62
f 62/84/62 28/37/50 29/39/47 63/86/63
f 29/38/47 30/40/44 31/42/43 63/87/63
usemtl initialShadingGroup
f 63/85/63 31/41/43 32/43/46 64/88/64
f 32/43/46 33/44/31 34/45/30 64/88/64
f 64/88/64 34/45/30 35/47/33 62/83/62
f 62/83/62 63/85/63 64/88/64
